# xmcd
#
# Track frame offsets:
#	150
#	14538
#	30478
#	49063
#	63018
#	78963
#	97713
#	114878
#	128313
#	143868
#	159783
#	172853
#	188375
#	200140
#	214770
#	232238
#	245268
#	259658
#
# Disc length: 3675 seconds
#
# Revision: 0
# Processed by: cddbd v1.5.1PL2 Copyright (c) Steve Scherf et al.
# Submitted via: audiograbber 1.83.01
#
DISCID=d60e5912
DTITLE=яелпетийг йолпамиа  - епитувиес 
DYEAR=1996
DGENRE=пакиа каийа and яелпетийа 
TTITLE0=та лпке паяахуяа 
TTITLE1=ма циати пеямы 
TTITLE2=о лгтсайгс 
TTITLE3=то вяистимайи 
TTITLE4=киобасикела
TTITLE5=ам пахеис йаи йалиа фглиа  (тситсамг лоу) 
TTITLE6=пыс ха пеяасеи г бяадиа 
TTITLE7=ха соу жуцы ле йаияо 
TTITLE8=осо баяеиа еим та сидеяа 
TTITLE9=ваяелиа ле диаламтиа 
TTITLE10=сто жакгяо поу пкемесаи 
TTITLE11=жамтафеис сам пяицйгпесса 
TTITLE12=лпоуфоуйи лоу дипковоядо 
TTITLE13=о ьаяас 
TTITLE14=еяцатгс тилглемос 
TTITLE15=пеяаслема неваслема 
TTITLE16=пеияаиытисса 
TTITLE17=дуо лацйес лес' тг жукайг 
EXTD=
EXTT0=
EXTT1=
EXTT2=
EXTT3=
EXTT4=
EXTT5=
EXTT6=
EXTT7=
EXTT8=
EXTT9=
EXTT10=
EXTT11=
EXTT12=
EXTT13=
EXTT14=
EXTT15=
EXTT16=
EXTT17=
PLAYORDER=
